<svg class="icon" width="200px" height="200.00px" viewBox="0 0 1024 1024" version="1.1"><path d="M213.333333 128h-0.853333c-1.024 0-2.090667 0.085333-3.114667 0.170667L213.333333 128a43.008 43.008 0 0 0-26.197333 8.96 43.434667 43.434667 0 0 0-7.082667 7.04l-0.341333 0.426667-0.853333 1.109333c-0.64 0.853333-1.28 1.792-1.877334 2.730667l2.730667-3.84A42.965333 42.965333 0 0 0 170.666667 170.666667v684.074666l0.128 2.048L170.666667 853.333333a43.008 43.008 0 0 0 9.045333 26.282667l0.341333 0.426667A42.922667 42.922667 0 0 0 213.333333 896h1.365334l2.133333-0.128L213.333333 896a43.008 43.008 0 0 0 26.282667-9.045333l437.077333-341.504a42.624 42.624 0 0 0-0.213333-67.072l-26.24-20.48-410.624-320.853334-1.152-0.853333a42.752 42.752 0 0 0-2.730667-1.877333l3.84 2.730666A42.965333 42.965333 0 0 0 214.144 128H213.333333z m597.333334 42.666667a42.666667 42.666667 0 0 0-42.666667 42.666666v597.333334a42.666667 42.666667 0 0 0 85.333333 0V213.333333a42.666667 42.666667 0 0 0-42.666666-42.666666zM256 258.133333L580.949333 512 256 765.824V258.133333z"  /></svg>